<svg width="207" height="28" viewBox="0 0 207 28" fill="none" xmlns="http://www.w3.org/2000/svg">
<path d="M5.4707 11.3652H17.9219V5.53809H5.4707V11.3652ZM0.490234 28V0.557617H17.8721C21.1426 0.673828 22.8193 2.32568 22.9023 5.51318V9.69678C22.8359 11.5728 21.9062 12.9673 20.1133 13.8804C21.9062 14.7935 22.8359 16.1797 22.9023 18.0391V23.0195C22.8193 26.1738 21.1841 27.834 17.9966 28H0.490234ZM17.9219 23.0195V16.3457H5.4707V23.0195H17.9219ZM27.8828 0.657227H32.8633V28H27.8828V0.657227ZM55.2754 15.5488V5.53809H42.8242V15.5488H55.2754ZM42.8242 20.5293V28H37.8438V0.557617H55.2256C58.4297 0.707031 60.1064 2.38379 60.2559 5.58789V15.499C60.1064 18.6533 58.4463 20.3301 55.2754 20.5293L60.3057 28H54.8271L49.7969 20.5293H42.8242ZM65.2363 0.557617H87.6484V5.53809H78.9326V28H73.9521V5.53809H65.2363V0.557617ZM110.061 15.4492V5.58789H97.6094V15.4492H110.061ZM97.6094 20.4297V28H92.6289V5.58789C92.7451 2.38379 94.397 0.723633 97.5845 0.607422H110.061C113.265 0.69043 114.925 2.35889 115.041 5.61279V28H110.061V20.4297H97.6094ZM120.021 0.657227H125.002V28H120.021V0.657227ZM129.982 28V0.557617H134.938L147.414 19.2344V0.557617H152.395V28H147.389L134.963 9.17383V28H129.982ZM157.375 0.557617H178.492V5.53809H162.355V13.0586H174.807V18.0391H162.355V28H157.375V0.557617ZM201.104 23.0195V5.53809H188.652V23.0195H201.104ZM183.672 5.51318C183.805 2.32568 185.465 0.673828 188.652 0.557617H201.079C204.233 0.673828 205.901 2.32568 206.084 5.51318V23.0195C206.001 26.2402 204.341 27.9004 201.104 28H188.652C185.398 27.9004 183.738 26.2402 183.672 23.0195V5.51318Z" fill="#055D59"/>
</svg>
