<svg width="66" height="66" viewBox="0 0 66 66" fill="none" xmlns="http://www.w3.org/2000/svg">
<circle cx="33" cy="33" r="33" fill="#D9D9D9"/>
<rect x="23.3004" y="6" width="18.7387" height="5.03267" fill="#055D59"/>
<path d="M47.7677 33.3584C45.0265 29.1182 42.1996 17.9214 41.1288 12.853H24.4247C24.2105 18.2497 20.0523 28.7719 18 33.3584C30.9029 47.3857 30.1814 55.7683 30.9488 61.2293C32.1955 61.4511 34.8571 61.3578 34.8571 61.2293C34.1611 45.5424 47.7141 33.3584 47.7677 33.3584Z" fill="#055D59"/>
<circle cx="32.8609" cy="63.4474" r="1.55263" fill="#055D59"/>
<rect x="32.25" y="33.75" width="1.71325" height="27.6261" fill="white"/>
<path d="M35.9232 36C35.3262 36 34.7719 35.9789 34.2601 35.9366C33.7484 35.9085 33.1016 35.8099 32.3198 35.6408C32.2061 35.5282 32.1208 35.3944 32.064 35.2394C32.0213 35.0704 32 34.9507 32 34.8803C32 34.7817 32.0213 34.7324 32.064 34.7324C32.1777 34.7324 32.4335 34.7887 32.8316 34.9014C33.2296 35 33.8195 35.0493 34.6013 35.0493C35.5821 35.0493 36.4492 34.9155 37.2026 34.6479C37.9559 34.3662 38.5458 33.9718 38.9723 33.4648C39.3987 32.9577 39.6119 32.3521 39.6119 31.6479C39.6119 31.1549 39.4698 30.7324 39.1855 30.3803C38.9012 30.0141 38.5316 29.7113 38.0768 29.4718C37.6361 29.2183 37.167 29.0282 36.6695 28.9014C36.172 28.7606 35.7029 28.6761 35.2623 28.6479C35.248 29.4366 35.2054 30.1972 35.1343 30.9296C35.0633 31.6479 34.978 32.2746 34.8785 32.8099C34.779 33.331 34.6795 33.6901 34.58 33.8873C34.5089 33.9859 34.3952 34.0634 34.2388 34.1197C34.0824 34.1761 33.9687 34.2042 33.8977 34.2042C33.7982 34.2042 33.7484 34.1831 33.7484 34.1408C33.8195 33.7183 33.8834 33.1831 33.9403 32.5352C34.0114 31.8873 34.0469 31.1901 34.0469 30.4437C34.0469 29.4014 33.9972 28.3592 33.8977 27.3169C33.7982 26.2746 33.6134 25.3239 33.3433 24.4648C33.0732 23.5915 32.6823 22.9085 32.1706 22.4155L33.0448 21C33.5707 21.4366 34.1606 21.7676 34.8145 21.993C35.4684 22.2183 36.1222 22.3944 36.7761 22.5211C37.4442 22.6479 38.0554 22.7746 38.6098 22.9014C39.1784 23.0282 39.6333 23.2183 39.9744 23.4718C40.3156 23.7113 40.4861 24.0775 40.4861 24.5704C40.4861 24.8803 40.3582 25.1901 40.1023 25.5C39.8607 25.7958 39.5551 26.0845 39.1855 26.3662C38.8159 26.6338 38.4392 26.8732 38.0554 27.0845C37.6859 27.2817 37.366 27.4437 37.0959 27.5704C36.8259 27.6972 36.6695 27.7676 36.6269 27.7817C37.8778 27.8662 38.8941 28.1127 39.6759 28.5211C40.4719 28.9296 41.0547 29.4296 41.4243 30.0211C41.8081 30.5986 42 31.2042 42 31.838C42 32.5282 41.7797 33.1972 41.339 33.8451C40.9126 34.4789 40.2516 35 39.3561 35.4085C38.4606 35.8028 37.3163 36 35.9232 36ZM35.2836 27.1056C35.8522 26.8803 36.3426 26.6268 36.7548 26.3451C37.167 26.0634 37.4869 25.7887 37.7143 25.5211C37.9559 25.2535 38.0768 25.0423 38.0768 24.8873C38.0768 24.6761 37.9559 24.507 37.7143 24.3803C37.4726 24.2394 37.1741 24.1268 36.8188 24.0423C36.4776 23.9437 36.1294 23.8521 35.774 23.7676C35.4328 23.669 35.1557 23.5634 34.9424 23.4507C34.9566 23.4648 34.9851 23.5845 35.0277 23.8099C35.0846 24.0211 35.1414 24.3944 35.1983 24.9296C35.2552 25.4507 35.2836 26.1761 35.2836 27.1056Z" fill="white"/>
<path d="M30.0768 36C30.6738 36 31.2281 35.9789 31.7399 35.9366C32.2516 35.9085 32.8984 35.8099 33.6802 35.6408C33.7939 35.5282 33.8792 35.3944 33.936 35.2394C33.9787 35.0704 34 34.9507 34 34.8803C34 34.7817 33.9787 34.7324 33.936 34.7324C33.8223 34.7324 33.5665 34.7887 33.1684 34.9014C32.7704 35 32.1805 35.0493 31.3987 35.0493C30.4179 35.0493 29.5508 34.9155 28.7974 34.6479C28.0441 34.3662 27.4542 33.9718 27.0277 33.4648C26.6013 32.9577 26.3881 32.3521 26.3881 31.6479C26.3881 31.1549 26.5302 30.7324 26.8145 30.3803C27.0988 30.0141 27.4684 29.7113 27.9232 29.4718C28.3639 29.2183 28.833 29.0282 29.3305 28.9014C29.828 28.7606 30.2971 28.6761 30.7377 28.6479C30.752 29.4366 30.7946 30.1972 30.8657 30.9296C30.9367 31.6479 31.022 32.2746 31.1215 32.8099C31.221 33.331 31.3205 33.6901 31.42 33.8873C31.4911 33.9859 31.6048 34.0634 31.7612 34.1197C31.9176 34.1761 32.0313 34.2042 32.1023 34.2042C32.2018 34.2042 32.2516 34.1831 32.2516 34.1408C32.1805 33.7183 32.1166 33.1831 32.0597 32.5352C31.9886 31.8873 31.9531 31.1901 31.9531 30.4437C31.9531 29.4014 32.0028 28.3592 32.1023 27.3169C32.2018 26.2746 32.3866 25.3239 32.6567 24.4648C32.9268 23.5915 33.3177 22.9085 33.8294 22.4155L32.9552 21C32.4293 21.4366 31.8394 21.7676 31.1855 21.993C30.5316 22.2183 29.8778 22.3944 29.2239 22.5211C28.5558 22.6479 27.9446 22.7746 27.3902 22.9014C26.8216 23.0282 26.3667 23.2183 26.0256 23.4718C25.6844 23.7113 25.5139 24.0775 25.5139 24.5704C25.5139 24.8803 25.6418 25.1901 25.8977 25.5C26.1393 25.7958 26.4449 26.0845 26.8145 26.3662C27.1841 26.6338 27.5608 26.8732 27.9446 27.0845C28.3141 27.2817 28.634 27.4437 28.9041 27.5704C29.1741 27.6972 29.3305 27.7676 29.3731 27.7817C28.1222 27.8662 27.1059 28.1127 26.3241 28.5211C25.5281 28.9296 24.9453 29.4296 24.5757 30.0211C24.1919 30.5986 24 31.2042 24 31.838C24 32.5282 24.2203 33.1972 24.661 33.8451C25.0874 34.4789 25.7484 35 26.6439 35.4085C27.5394 35.8028 28.6837 36 30.0768 36ZM30.7164 27.1056C30.1478 26.8803 29.6574 26.6268 29.2452 26.3451C28.833 26.0634 28.5131 25.7887 28.2857 25.5211C28.0441 25.2535 27.9232 25.0423 27.9232 24.8873C27.9232 24.6761 28.0441 24.507 28.2857 24.3803C28.5274 24.2394 28.8259 24.1268 29.1812 24.0423C29.5224 23.9437 29.8706 23.8521 30.226 23.7676C30.5672 23.669 30.8443 23.5634 31.0576 23.4507C31.0434 23.4648 31.0149 23.5845 30.9723 23.8099C30.9154 24.0211 30.8586 24.3944 30.8017 24.9296C30.7448 25.4507 30.7164 26.1761 30.7164 27.1056Z" fill="white"/>
</svg>
